<?xml version="1.0" encoding="UTF-8"?>
<svg width="238px" height="250px" viewBox="0 0 238 250" version="1.1" xmlns="http://www.w3.org/2000/svg" xmlns:xlink="http://www.w3.org/1999/xlink">
    <!-- Generator: Sketch 52.6 (67491) - http://www.bohemiancoding.com/sketch -->
    <title>craft-relations-logo</title>
    <desc>Created with Sketch.</desc>
    <g id="Page-1" stroke="none" stroke-width="1" fill="none" fill-rule="evenodd">
        <g id="craft-relations-logo">
            <g id="Polygon" fill="#F2DC5D">
                <g id="path-1-link">
                    <polygon id="path-1" points="119 0 192.473157 23.8728757 237.882065 86.3728757 237.882065 163.627124 192.473157 226.127124 119 250 45.5268435 226.127124 0.117935463 163.627124 0.117935463 86.3728757 45.5268435 23.8728757"></polygon>
                </g>
                <g id="path-1-link">
                    <polygon id="path-1" points="119 0 192.473157 23.8728757 237.882065 86.3728757 237.882065 163.627124 192.473157 226.127124 119 250 45.5268435 226.127124 0.117935463 163.627124 0.117935463 86.3728757 45.5268435 23.8728757"></polygon>
                </g>
                <g id="path-1-link">
                    <polygon id="path-1" points="119 0 192.473157 23.8728757 237.882065 86.3728757 237.882065 163.627124 192.473157 226.127124 119 250 45.5268435 226.127124 0.117935463 163.627124 0.117935463 86.3728757 45.5268435 23.8728757"></polygon>
                </g>
            </g>
            <g id="noun_connection_1320549" transform="translate(39.000000, 45.000000)" fill="#222222" fill-rule="nonzero">
                <path d="M138.631532,3.82594175 C138.102848,3.69972931 137.193511,3.73032627 135.899998,3.92155723 C131.846754,4.24091294 128.967188,6.40755977 127.264826,10.42341 C125.620619,14.567385 125.974837,18.7744662 128.323956,23.0446537 C129.557552,22.8534227 130.61492,22.1516051 131.49606,20.9411131 C132.3772,19.4743716 133.082112,18.4245136 133.610796,17.7858022 C134.491936,16.7015226 135.255003,15.969108 135.90176,15.5866461 C136.959128,15.2672904 138.250879,15.3954151 139.778776,15.969108 C138.310797,16.9252628 136.576713,18.5832353 134.58005,20.9411131 C132.70146,22.7903165 130.61492,23.4902218 128.323956,23.0446537 C134.197635,28.7184764 139.86689,28.9728136 145.328196,23.8095775 C144.625046,23.7464713 143.802061,23.9682992 142.862766,24.4788859 C141.62917,24.9894726 140.836144,25.276319 140.481926,25.3394253 C141.363066,22.9815475 142.097936,21.6429307 142.684776,21.323575 C143.449605,21.0042193 144.536932,21.4497874 145.946756,22.6621918 C148.648331,20.6236697 150,18.3269858 150,15.777877 C150,13.1656621 148.708249,10.9014874 146.122984,8.98917779 C145.770528,8.73484061 144.771315,8.35237868 143.127108,7.84179201 C141.895274,7.39622386 141.07229,6.72691548 140.661678,5.83386688 C140.305698,4.75149962 139.630744,4.08219124 138.631532,3.82594175 Z M149.290482,6.45432241 C151.487022,7.8029868 152.901684,9.92231654 153.536201,12.8123117 C154.058031,15.7023068 153.624618,18.3668823 152.235961,20.8079648 C149.404903,25.8172896 145.504181,28.8036179 140.533795,29.7669496 C135.679563,30.6031216 131.374899,29.1889506 127.619804,25.5282901 C126.059516,24.0505393 124.988117,22.2202091 124.41081,20.0372994 C124.006869,18.3033024 123.920186,15.9913063 124.152496,13.1013112 C123.459034,11.430894 123.661872,9.7296502 124.759275,7.99565314 C126.262353,6.26165607 127.330284,4.91299169 127.966535,3.94965998 C129.932499,1.31591111 132.994132,0 137.156636,0 C140.102115,0 141.691876,0.0327532779 141.924185,0.0963331703 C143.65784,0.481665852 144.841925,1.79757696 145.478176,4.04599315 C145.592598,4.49490573 146.112694,4.88023841 147.036732,5.2019912 C148.3075,5.84357011 149.058172,6.25972941 149.290482,6.45432241 Z M132.308131,10.6835937 C132.507802,10.2929688 132.804328,10.0664062 133.203669,10 C133.699865,10 134.121557,10.1621094 134.470235,10.4882812 C135.264447,11.2050781 135.166102,12.0195312 134.17222,12.9296875 C133.725196,13.3847656 133.178337,14.0371094 132.533133,14.8828125 C131.837267,15.6640625 130.993882,16.1210938 130,16.25 C130.992392,13.515625 131.761273,11.6601562 132.308131,10.6835937 Z M143.479781,17.5 C143.26442,15.4246908 143.04744,13.9153751 142.833698,12.9720527 C142.399737,11.3363317 141.455711,10.3628231 140,10.0477534 C141.619256,8.34977317 142.995624,8.31770021 144.129103,9.95342117 C145.476324,12.0928763 145.260963,14.6077737 143.479781,17.5 Z M84.6567273,22.3759277 C85.0581565,22.179823 86.3503107,21.8523281 88.5331898,21.3954042 C90.0837748,20.9384802 90.6299253,21.5581711 90.1699185,23.2583988 C90.054486,23.7819983 90.1406296,24.1408699 90.4266264,24.3369746 C90.8883562,24.3369746 91.2312077,24.3703124 91.4620726,24.435027 C93.7586613,25.023341 94.9371059,26.1999692 94.9939607,27.9649115 C95.0508155,29.0101495 94.706241,29.9259584 93.9602374,30.7103772 C93.4985076,31.2339768 92.7542268,31.8536676 91.7187806,32.5733718 C91.1450641,33.2264005 89.7392004,33.6186099 87.4994665,33.75 L85.7765943,33.6519477 C84.4534284,33.455843 83.1922859,32.8341911 81.9862753,31.788953 C80.72341,30.741754 80.0618271,29.6651392 80.0049723,28.5532256 C79.9481175,27.443273 80.3788356,26.2646838 81.2971265,25.023341 C82.3308498,23.6506082 83.4507167,22.768137 84.6567273,22.3759277 Z M84.151682,27.0506566 C83.3479994,28.3844481 83.7507011,29.5502658 85.3563455,30.5501094 C86.561009,30.8160678 87.4782742,31.0500313 88.109862,31.25 C89.3145255,30.9840416 90.0614169,30.7840729 90.3488152,30.6500938 C91.7823647,30.0501876 92.5,29.2843074 92.5,28.3504534 C92.5,27.5505784 92.1833456,27.0506566 91.5517577,26.8506879 C91.2660804,26.7846982 90.7790522,26.7507035 90.0889521,26.7507035 C89.2852694,26.7507035 88.2544217,26.2847764 86.9912459,25.3509224 C86.0154685,24.5510475 85.0689472,25.1189587 84.151682,27.0506566 Z M109.487982,46.8623173 C110.613269,46.0802372 111.442147,46.0469987 111.972843,46.7645572 C112.801721,47.806679 112.652629,48.6865191 111.529118,49.4040776 C109.754217,50.4461994 107.832,52.1745964 105.760691,54.5853583 C102.743361,58.0401972 100.996859,60.0266807 100.524735,60.5487191 C98.4534266,62.568441 97.3299147,64.0348412 97.1524246,64.9479197 C96.9749346,65.7964767 97.537578,67.5542017 98.83858,70.2269605 C101.32344,75.3750028 101.176124,80.5895219 98.3948549,85.8685626 C97.5659764,87.4972444 97.2429445,88.8346014 97.4186597,89.8767232 C97.4772314,91.0498433 98.1286198,92.2874851 99.3710501,93.5916037 C99.8467234,94.1136421 101.295042,95.937844 103.719556,99.0661644 C105.377313,101.281406 106.94455,102.976565 108.423042,104.149685 C110.018677,105.649324 110.315086,106.886966 109.310492,107.864566 C108.126634,109.168684 106.85403,108.842166 105.494456,106.886966 L97.5074047,96.8176841 C96.6199545,95.5800423 95.791076,94.8624839 95.0243191,94.6669638 C94.1368689,94.4714438 93.0701538,94.8624839 91.8277235,95.840084 C83.1910584,102.747807 74.0485466,103.563125 64.4072879,98.2840843 C63.8144711,100.761323 63.0441644,102.356766 62.0981425,103.074325 C58.7861784,105.616085 56.6261247,108.451126 55.6215311,111.579446 C55.3251227,112.426048 54.8228259,113.045846 54.1110909,113.436886 C52.9290072,113.958925 52.041557,113.827926 51.4487403,113.045846 C51.0955351,112.394765 51.2126786,111.612685 51.8037204,110.699606 C57.0698498,103.660885 59.7605987,100.043765 59.879517,99.8482445 C61.5958457,97.8285227 61.7129891,95.5800423 60.2344971,93.1028036 C59.1109852,91.2140801 57.9572999,88.312563 56.7734414,84.4021624 C54.9399693,77.6880047 56.5089812,70.5847621 61.4769274,63.0904795 C63.0743377,60.6797176 63.8730428,59.1136021 63.8730428,58.3979988 C63.8730428,57.6823955 63.0441644,56.3450386 61.3899572,54.3898383 C61.0349772,53.9987982 60.3835887,53.3789998 59.4357919,52.532398 C58.7276067,51.7503179 58.8145768,50.9369546 59.702027,50.0883977 C61.1219473,48.6552359 62.6909592,49.2730792 64.405513,51.945838 C65.5875966,54.0320366 66.5052201,55.1719184 67.1566085,55.3674384 C67.806222,55.6274801 69.195969,55.3029168 71.3276244,54.3898383 C74.4638733,53.2812397 77.747439,52.9879597 81.1783214,53.5099982 C83.428895,54.0965583 84.6979488,54.8786384 84.9943571,55.8562385 C85.2907655,56.964837 85.9705523,57.7136787 87.0354926,58.1047188 C88.631128,58.7558005 89.4901798,59.1155573 89.6073232,59.180079 C93.2156956,62.1128794 96.5010362,61.5576025 99.4597951,57.5181587 C100.524735,56.0849969 103.098341,53.1834797 107.180612,48.8175175 C108.00949,47.9709158 108.778022,47.3198341 109.487982,46.8623173 Z M83.9888714,70.0499011 C82.2513678,66.9586083 79.6711833,65.219756 76.25,64.8333444 C80.2867945,62.9650443 83.3984903,63.5137488 85.5850873,66.4755938 C87.4369667,68.8578213 88.4730773,70.9193272 88.698465,72.6581795 C88.9221707,74.5902375 88.4175714,77.038155 87.1846671,80 C86.0627746,75.1041649 84.9980701,71.7868213 83.9888714,70.0499011 Z M92.4720962,65.2550024 C90.6732833,63.1979084 88.7539499,61.8155874 86.7158949,61.1099675 C85.4567259,60.6607614 84.4979586,59.9859883 83.8359955,59.0856482 C81.0784153,55.8718002 77.7811913,55.3898194 73.9425246,57.6397058 C69.0281677,60.7243829 65.7291449,63.7762853 64.0490536,66.797341 C63.8098115,67.2465471 63.3601083,67.9540949 62.699944,68.9180565 C62.1009393,69.8820181 61.8598983,70.8787544 61.9822176,71.9063375 L67.7384189,66.4117563 C68.6378253,65.6405871 69.2674098,65.5769656 69.6271724,66.218964 C70.2855379,66.9265118 70.1668163,67.599357 69.2674098,68.2432834 L63.0615054,73.9306568 C61.2033316,75.7294092 60.1834047,77.1117301 60.0035234,78.0756917 C59.9441626,79.1668963 60.6349068,81.0639727 62.0721583,83.7630652 L71.3360447,75.1838069 C72.4153324,74.2198453 73.1942184,74.1870706 73.6745014,75.0874108 C74.1547845,75.7294092 74.0036842,76.4697317 73.2247982,77.3045224 L66.2094279,82.9918959 C63.930332,84.7925762 62.7611036,86.1401945 62.7017428,87.0405346 C62.7017428,87.8117039 63.6335279,89.5468348 65.4917016,92.2459273 C66.8084326,91.3455871 68.9975879,89.4176639 72.0555698,86.4621577 C74.7537892,83.8266866 77.1228258,82.0587811 79.1608808,81.1603689 C79.4001229,82.3807442 78.9504197,83.3774805 77.8117711,84.1486498 L69.8969944,91.474758 C69.5983914,91.7967212 69.0569487,92.278702 68.2798616,92.9207004 C67.7995785,93.4990774 67.8607382,94.1410758 68.4597429,94.8486236 C69.8987932,96.7765468 71.3990031,97.1312847 72.9567751,95.9089814 L75.6549944,93.5954735 C77.9340904,91.6675503 79.6717436,90.2216079 80.8715518,89.2576463 C82.850246,87.7789292 84.7372007,86.5913285 86.5360136,85.6909884 C85.6366072,87.6189116 83.9583148,89.5796095 81.4993375,91.5711542 C78.2614743,94.3994175 76.284579,96.1981699 75.563255,96.9693391 C77.0616661,97.676887 78.351415,97.676887 79.4307027,96.9693391 C79.4900635,96.9693391 80.360689,96.1345484 82.0371826,94.463039 C83.2369908,93.1771142 84.1669771,92.278702 84.8271414,91.7639465 C86.0251508,90.8636063 87.3148996,90.5435711 88.6927903,90.7999849 C88.6334295,91.8275679 87.9426853,92.7606828 86.6259543,93.5954735 C85.1851052,94.4321922 84.3774382,95.3306044 84.1957581,96.294566 C90.9718862,94.4958137 95.6200188,89.2576463 98.136558,80.5819919 C99.2770054,76.662524 98.8273022,73.4814507 96.7874483,71.038772 C95.8286811,69.8164687 94.3914296,67.8885455 92.4720962,65.2550024 Z M149.207488,36.4098985 C153.271104,33.8747886 155.770781,30.0389722 156.708395,24.9043995 C157.021557,23.9293572 157.646008,23.5724917 158.583621,23.831853 C159.521235,23.8962058 159.990041,24.4812312 159.990041,25.5869291 C160.115682,27.8626778 159.052428,30.5264933 156.804031,33.5822759 C154.615642,36.6380584 152.459131,38.3599831 150.334499,38.75 L149.676294,38.75 L148.834318,38.1649746 C148.646795,37.3186379 148.772435,36.7336125 149.207488,36.4098985 Z M120.922343,36.6598664 C121.333031,37.2676053 121.356017,37.7859172 121.000496,38.2111519 C120.589808,38.7586644 119.978373,39.6109589 119.161595,40.7662103 C118.344816,41.6787312 117.373263,42.2572694 116.25,42.5 C116.862967,40.3099499 117.221553,39.0926471 117.322693,38.8499165 C117.782418,37.5723873 118.573146,36.7200928 119.697941,36.2948581 C120.260338,36.1744053 120.667962,36.2966831 120.922343,36.6598664 Z M130,76.9740922 C130,78.2662365 130.66961,79.4925144 132.008831,80.6548631 C133.348051,81.8172118 134.776675,82.4313193 136.296526,82.4952485 C138.121077,82.5591777 139.611736,81.9780033 140.766676,80.7517255 C141.921617,79.5254476 142.5,77.9097829 142.5,75.9086059 C142.5,74.229012 142.012845,72.8419426 141.040359,71.743523 C140.067873,70.5811743 138.790687,70 137.206977,70 C135.566706,70 133.982995,70.7419659 132.463144,72.227835 C130.945118,73.7137041 130.124069,75.2964356 130,76.9740922 Z M128.804234,72.950156 C131.416173,68.6218304 134.37463,66.8710256 137.684828,67.6996508 C138.729604,68.4633606 139.513186,68.9406793 140.035574,69.1316067 C142.59005,69.9583226 144.042289,70.6265688 144.388806,71.1363451 C144.794527,71.6461214 145,73.1735411 145,75.7186042 C145,78.3915887 144.679602,80.2378572 144.042289,81.2555006 C143.51816,82.3380593 142.243533,83.2602389 140.211444,84.0239488 C137.890301,84.9785861 135.713684,85.2325196 133.681595,84.7876586 C131.706969,84.3427977 130.082343,83.2602389 128.805975,81.5418918 C127.935328,80.396327 127.500005,79.0598348 127.500005,77.5324151 C127.498264,75.94008 127.933587,74.4126603 128.804234,72.950156 Z M154.589552,76.9946719 C154.954167,77.3200698 155.076313,77.6766435 154.954167,78.0663415 C154.649714,79.1048867 154.25593,80.6968032 153.76917,82.8401423 C153.101926,84.5937834 151.885937,85.7297531 150.123027,86.25 C149.700074,84.0423607 150.367318,80.9890767 152.130229,77.0920964 C152.372697,76.3770006 152.828465,76.1178514 153.497532,76.3127004 C153.920485,76.3789491 154.285099,76.6069224 154.589552,76.9946719 Z M156.441971,129.762046 C156.725054,127.300671 157.514973,126.132464 158.81512,126.25932 C159.606735,126.448656 160,127.016666 160,127.963349 C160,128.468878 159.915245,129.288705 159.747429,130.424725 C160.3119,136.735313 157.54379,142.258261 151.441406,146.991676 C150.368403,147.875878 149.463216,148.379513 148.729235,148.506368 C147.54266,148.885042 146.298452,148.822561 145,148.317032 C147.486722,146.548628 148.898746,145.50917 149.237767,145.192978 C153.928127,141.343765 156.243643,137.021211 156.187705,132.223422 L156.441971,129.762046 Z M117.214442,118.75 C116.236767,118.75 115.051834,118.038594 113.655456,116.615781 C112.259077,115.260044 111.457259,114.04049 111.25,112.957119 L111.25,112.245713 C111.878056,111.298526 112.644285,111.026159 113.552873,111.432677 C114.390282,111.703012 115.508222,112.652231 116.902507,114.278303 C118.367972,116.040558 118.960438,117.158482 118.684094,117.632076 C118.468461,118.378036 117.982764,118.75 117.214442,118.75 Z M129.008824,125.067027 C129.245917,125.72364 129.008824,126.480816 128.295763,127.33461 C125.50413,129.832896 124.10653,131.607527 124.10653,132.658502 C124.224185,133.709478 125.769745,135.419039 128.741426,137.785213 L130.078415,138.771119 C132.039333,139.954206 134.207038,140.283498 136.585096,139.757025 C139.079026,139.100411 140.950811,137.883803 142.198668,136.109173 C143.387697,134.334542 143.892187,132.295689 143.715705,129.996556 C143.476829,127.630382 142.615808,125.62505 141.130859,123.98253 C140.715501,123.523098 140.000657,122.272969 138.991676,120.236088 C137.74382,117.804844 136.109128,116.489645 134.089383,116.292464 C131.9502,116.030213 130.137243,116.982598 128.652294,119.151591 C127.522092,120.729041 125.889183,123.357466 123.75,127.038839 C124.461278,127.038839 125.413214,126.512365 126.602244,125.461389 C127.432959,124.739706 128.236936,124.607595 129.008824,125.067027 Z M126.122888,116.984658 C127.929076,114.284508 130.056986,112.80308 132.503121,112.540373 C135.068153,112.277667 137.458336,113.296889 139.67367,115.601992 C140.547914,116.589611 141.682683,118.234984 143.083222,120.540086 C144.424312,122.910372 145.559081,124.589324 146.491025,125.576943 C147.307569,126.301855 147.627542,127.486997 147.454442,129.132371 C147.396742,134.40033 145.092235,138.51475 140.547914,141.477607 C136.000097,144.440463 131.892899,144.505646 128.221074,141.67513 C125.830891,139.962599 124.052679,138.382409 122.886437,136.93456 C121.137949,134.959322 120.176281,132.78656 120.00318,130.416275 C119.94548,127.980807 120.672851,125.608546 122.18879,123.305419 L126.122888,116.984658 Z M137.269369,125.05102 C138.243282,124.846939 138.731008,125.255102 138.731008,126.27551 C138.781781,127.97551 138.731008,129.132653 138.575613,129.744898 C138.370983,130.969388 137.780173,131.887755 136.807799,132.5 L136.267761,126.887755 C136.166216,125.865306 136.500085,125.253061 137.269369,125.05102 Z M82.3098373,118.700524 C81.4549102,121.078983 79.2320997,122.33362 75.6414058,122.466417 C73.4185953,122.73003 71.6813834,121.441698 70.4263504,118.601421 C69.1730272,115.56294 70.6828285,113.909911 74.9574641,113.646298 C75.3541503,114.240913 75.3285025,114.768138 74.8702615,115.231938 C74.5300005,115.49555 74.0461118,115.826552 73.4168854,116.222962 C73.0749146,116.619372 73.1313398,117.180292 73.5878708,117.907704 C74.3299476,119.360546 75.6396959,119.756956 77.5222455,119.096933 C78.2044773,118.833321 78.6045832,118.436911 78.7174336,117.907704 C78.7738588,117.576702 78.6610084,117.015782 78.3771726,116.222962 C77.9787765,115.364735 77.7205885,114.77012 77.6077382,114.439118 C77.3786177,113.779095 77.4931779,113.184481 77.949709,112.655274 C78.4626653,112.324271 78.946554,112.522476 79.4030851,113.249888 C80.3708626,114.37371 81.1129394,115.198243 81.6258956,115.72745 C82.4808228,116.718474 82.7082334,117.709499 82.3098373,118.700524 Z M101.247338,136.347814 C101.302829,138.902718 100.490644,140.932883 98.8091,142.440276 C97.2385381,144.07738 95.1097037,144.930324 92.4192336,144.99518 C90.2332267,145.060035 88.4390195,144.470442 87.0382936,143.2264 C85.7485495,141.915538 85.075932,140.115314 85.0204411,137.821797 C84.8522867,135.986197 85.7216448,133.824356 87.6268339,131.336273 C89.4782136,128.846224 91.1597574,127.568773 92.6714652,127.503917 C95.0256265,127.437097 97.0451605,128.225186 98.7267043,129.86229 C100.406567,131.695924 101.247338,133.855801 101.247338,136.347814 Z M97.0631877,139.981499 C98.1896035,139.206237 98.75,138.171262 98.75,136.880451 C98.6263004,135.265968 98.0321676,133.715443 96.9694759,132.228878 C95.7830845,130.742313 94.594819,130 93.4103018,130 C92.3476101,130.065897 91.099369,130.936129 89.66183,132.616509 C88.2224168,134.360849 87.5064587,135.911373 87.5064587,137.268082 C87.3827591,140.047396 89.0358352,141.371156 92.4731839,141.2413 C94.3474198,141.239362 95.8786706,140.82072 97.0631877,139.981499 Z M132.452083,131.850703 C132.257717,132.939352 131.771803,133.555528 130.99434,133.701407 C130.475383,133.847285 130.150793,133.664392 130.022511,133.157082 L130.022511,131.959568 C129.89423,130.653189 130.31406,130 131.285888,130 C132.257717,130 132.644505,130.616175 132.452083,131.850703 Z M49.5506963,29.1568722 C47.3745541,27.9260735 45.5181211,28.8010489 43.9884628,31.7817982 C42.9268869,34.050901 43.4885859,36.5455529 45.6664945,39.2676984 C47.0795738,41.2120881 48.962502,41.600966 51.3170454,40.4343322 L53.4366644,39.5593569 C54.5565298,39.0402048 55.3814148,38.6513269 55.9095532,38.3927231 C56.6743824,37.7452413 57.0276522,36.9344308 56.9693627,35.962236 C56.7344383,33.0456515 55.2330415,31.8148528 52.4651724,32.2678956 C52.2302479,32.2678956 51.9352676,32.1065113 51.5819978,31.7817982 C53.4066365,30.4207255 54.7614263,29.8043539 55.6446008,29.934628 C56.5277754,29.9987929 57.5292954,30.7765488 58.6473944,32.2678956 C60.7087239,35.1844801 60.4137436,37.873571 57.7642198,40.3371127 C56.5277754,41.6340206 53.9665691,43.0592583 50.080601,44.61477 C46.8994062,45.7172389 44.3399662,44.4533857 42.3952158,40.8232102 C41.3954622,38.4899426 40.6871562,36.5786075 40.2755968,35.0872606 C39.5708235,32.1065113 40.2173073,29.9015734 42.2203472,28.4763358 C43.8082951,27.0510982 45.0465059,26.1100136 45.9296805,25.6569708 C47.3427598,24.8150501 48.815895,24.7819954 50.3455534,25.5597513 C51.7003432,26.1430682 52.2903038,26.8566592 52.1119025,27.6985799 C51.9953235,28.2818968 51.7003432,28.7679942 51.228728,29.1568722 C50.6423,29.4815852 50.0823673,29.4815852 49.5506963,29.1568722 Z M37.0833333,26.8897489 C35.662963,28.7867258 35.0777778,30.8108002 35.3259259,32.960075 C35.3259259,33.5917684 34.6759259,33.8440663 33.3796296,33.7188658 C32.762963,33.7188658 32.2388889,33.5291681 31.8055556,33.1497727 C31.4351852,32.7703773 31.25,32.3587334 31.25,31.9167377 C31.3111111,30.2720587 31.8351852,28.6596283 32.8240741,27.0794466 C33.0111111,26.7626514 34.0592593,25.4044159 35.9722222,23.0009462 C37.5777778,20.9142715 39.3351852,20.6923252 41.25,22.3370042 C40.3240741,23.4125902 38.9351852,24.9301717 37.0833333,26.8897489 Z M17.5,52.061167 C15.1282643,56.9179662 13.7447518,59.9551434 13.347486,61.1688639 C12.886974,62.4477762 12.8533744,64.1408491 13.2486637,66.25 C11.7999285,66.1867255 10.6792833,65.8032435 9.88870477,65.0995541 C8.96570428,64.3325901 8.60599103,63.3738852 8.80165923,62.2234393 C9.5922378,57.2381736 11.7999285,53.6276908 15.4227548,51.3900735 C16.0176652,51.0717835 16.7094214,51.2961204 17.5,52.061167 Z M21.3486843,68.8165233 C20.9532228,66.650198 21.7458503,64.290758 23.7350896,61.7420274 C25.3834138,59.575702 26.7743472,58.2372838 27.9112989,57.7267729 C29.387461,57.216262 30.326682,57.5680748 30.7221434,58.7783872 C31.2352206,60.1168053 30.6931656,60.9141202 29.1045015,61.1684196 C28.0238008,61.2965253 27.3692439,61.5833292 27.14424,62.0288313 C26.747074,62.6655359 26.0362661,63.4628507 25.013521,64.4188637 C24.3316909,65.3748767 24.2737353,66.4589954 24.8430635,67.6693078 C25.354436,69.1358317 26.2339969,70.1549415 27.4851551,70.7285493 C28.7925643,71.4302628 30.1834976,71.5583685 31.6613644,71.1109545 C34.2744782,70.4092409 35.4097253,68.6884176 35.0705148,65.9484844 C35.1830168,64.290758 34.8148285,62.8892429 33.9625409,61.7420274 C32.9397958,60.7229176 32.9397958,59.8625059 33.9625409,59.1607924 C34.7023266,58.7152903 35.4966586,58.9064929 36.3489462,59.7344002 C37.7126064,61.0097215 38.508643,62.8567385 38.733647,65.2792754 C38.8478535,67.6368033 38.3637541,69.5813337 37.284758,71.1109545 C36.0915554,72.8317778 34.4142533,74.0114978 32.2562611,74.6482024 C29.9840623,75.2218102 27.9948231,75.0937045 26.2902478,74.2657973 C23.4521301,72.8642823 21.8055104,71.0478576 21.3486843,68.8165233 Z M50.316633,118.738887 C49.8316022,118.798606 49.4179423,118.617639 49.0771098,118.195986 C48.7872566,117.893771 48.6882113,117.502883 48.7872566,117.019701 C48.9809776,115.512247 49.7820796,114.848099 51.1891059,115.029065 C51.9654465,115.210032 52.4024112,115.66245 52.5,116.386317 C52.1620806,117.772524 51.4338061,118.55611 50.316633,118.738887 Z M37.4058993,85.6723164 C37.4632083,85.5389672 37.4371588,84.6114937 37.3190675,82.8859153 C37.2044494,81.6917435 37.4632083,80.7304351 38.100554,80 C38.6788541,80.1333492 38.9688724,80.2647081 38.9688724,80.3980573 C39.2588908,81.2598513 39.8667136,82.5197026 40.7923411,84.1796015 C41.4296868,85.6384815 41.4019006,86.8326534 40.7055092,87.7621171 C38.9115634,90.0847814 36.1607307,91.2451184 32.4564844,91.2451184 C31.124484,91.3107979 30.1120248,90.7137119 29.41737,89.4538606 C28.6636697,88.3253682 28.5490516,87.031682 29.0700427,85.572802 C29.8237431,82.786401 31.2703615,81.5583943 33.4116347,81.8907721 C34.0489804,82.4878581 33.9621485,83.2182932 33.1528758,84.0800872 C32.5155301,84.7428526 32.1386799,85.1429002 32.0240619,85.2742591 C31.7340435,85.8056656 31.7340435,86.4345961 32.0240619,87.1650312 C32.4877439,88.2915333 33.0955668,88.6239112 33.8475305,88.1601744 C34.8322036,87.9611458 35.5546445,87.7621171 36.0183265,87.5630885 C36.7702902,87.2983804 37.2339723,86.6674596 37.4058993,85.6723164 Z M21.6399891,115.355533 C24.9665929,113.794878 28.03057,113.371551 30.8319206,114.087501 C33.0502401,114.216255 34.7135419,114.444501 35.8235771,114.770287 C37.7495056,115.291156 38.9453321,116.785482 39.4128075,119.257168 C34.7433063,117.370728 30.9194628,116.656728 27.9447787,117.111269 C24.0929217,117.632137 20.8836245,120.07066 18.3151362,124.426836 L26.9800636,118.28176 C27.5648455,118.99771 27.7399299,119.582955 27.5070677,120.037496 C27.4492898,120.232577 27.1271345,120.589577 26.5423526,121.110445 L18.3151362,127.840767 C17.0895453,128.751799 16.2141233,129.855962 15.68887,131.157158 C15.2196438,132.392025 14.958768,134.083384 14.9009902,136.229284 L25.931308,127.938308 C26.6316456,127.091653 27.244441,126.539572 27.7696943,126.280113 C28.4700319,125.630491 29.0828273,125.694868 29.6080806,126.475195 C30.1350846,127.319899 30.0160272,128.035849 29.2596626,128.621094 C28.8517159,129.011258 28.2371696,129.467749 27.4195255,129.986667 C25.0856503,131.80678 21.6137264,134.409171 17.0037539,137.789938 C16.1283319,138.375184 15.632843,138.829724 15.5137856,139.155511 C15.105839,139.676379 15.0463103,140.359166 15.3387012,141.20387 C15.5715635,141.91982 15.8639544,142.926442 16.2141233,144.227637 C16.6220699,145.398128 17.205101,146.211619 17.9649674,146.66616 C18.6635541,146.991946 19.5109627,146.632996 20.5036913,145.59321 C23.6552107,142.341197 26.0170993,139.902674 27.5946099,138.277643 C28.6451163,137.302234 29.490774,137.237857 30.1333338,138.082561 C30.5395296,138.603429 30.6288227,139.091134 30.3942096,139.545674 C30.2786539,139.676379 29.8987207,140.000215 29.2579117,140.521083 C25.4638326,144.293965 22.4873976,146.861242 20.326856,148.226814 C20.5036913,149.330977 20.9414023,150.210796 21.6399891,150.860418 C21.8168244,151.0555 22.4856468,151.607581 23.6534598,152.518613 C24.8790507,153.494022 26.0451128,153.298941 27.155148,151.933368 C27.7959569,151.088664 29.2859253,149.559223 31.6198004,147.348946 C34.7135419,144.682178 36.4048573,142.017361 36.6972483,139.350593 C36.9301106,136.683825 35.7903111,133.726385 33.2831023,130.474371 L32.8453913,129.986667 C32.0277471,129.465798 31.9997336,128.783012 32.7578491,127.938308 C33.2831023,127.288686 33.9536756,127.255522 34.7695689,127.840767 C36.7550262,129.075635 38.0961727,131.125944 38.7965104,133.985844 C39.4390701,136.586284 39.4110566,139.253052 38.7089682,141.984197 C37.8335461,144.910424 35.7903111,147.577192 32.5810138,149.98255 C30.714614,151.4125 29.546801,153.039482 29.0793257,154.859595 C31.2976451,155.835004 33.4266715,155.216595 35.4699066,153.006318 C37.7460039,150.33955 39.5248615,149.007141 40.8099811,149.007141 C41.0428433,150.242009 40.5175901,151.283746 39.2342214,152.12845 C37.8335461,152.973154 37.1034441,153.786645 37.0456663,154.566972 C40.37227,153.720317 43.1438562,151.966532 45.3621757,149.299764 C47.6400239,146.568619 48.8638639,143.44731 49.0406991,139.935838 C49.098477,137.98502 48.660766,135.936661 47.7275661,133.790762 C47.3773973,133.205516 46.3846687,131.44978 44.7511311,128.523553 C43.8179312,126.832194 42.2999494,125.597327 40.1989365,124.816999 C39.0311235,124.296131 37.1349593,123.679673 34.5086932,122.963722 C35.4418931,121.59815 36.5799417,120.884151 37.9210883,120.817823 C38.5636481,120.753446 39.7297103,120.915364 41.4227765,121.305527 C44.0490426,121.95515 46.6753088,124.46 49.3015749,128.816176 C51.8700632,133.172352 52.8925561,136.781366 52.3655521,139.643215 C50.9070989,146.730537 48.3963885,151.868991 44.8369225,155.054677 C39.2919992,160.126803 32.8734048,161.297294 25.5776375,158.566149 C18.3991767,155.835004 13.8767464,150.534632 12.0085958,142.666983 C10.4345869,135.644039 11.310009,128.718635 14.6348619,121.890773 C15.9777593,119.161578 18.3133853,116.982515 21.6399891,115.355533 Z M15.2490272,110.043218 C16.5157113,109.851301 17.2656989,110.298467 17.4955338,111.386634 C17.5525605,112.1543 17.0635133,112.699343 16.0266641,113.017925 C13.7214028,113.530342 11.6494325,114.841132 9.80384096,116.952215 C8.59418359,118.358963 7.18234063,120.470046 5.57004017,123.285462 C4.64897249,125.141295 4.1875746,126.100878 4.1875746,126.164211 C3.78493151,127.31571 3.9871171,128.403877 4.79413137,129.426792 C5.19504638,129.93921 5.22615186,130.386375 4.88053547,130.770209 C4.64897249,131.090709 4.2739787,131.25 3.7572822,131.25 C2.26076322,131.186668 1.16515926,130.578292 0.475654559,129.426792 C-0.15855152,128.211961 -0.15855152,126.931877 0.475654559,125.588461 C4.04587188,117.656549 8.45248087,112.634092 13.6937534,110.523009 L15.2490272,110.043218 Z" id="Shape"></path>
            </g>
        </g>
    </g>
</svg>